<?xml version="1.0" encoding="UTF-8" standalone="no"?>
<!DOCTYPE svg PUBLIC "-//W3C//DTD SVG 1.1//EN"
 "http://www.w3.org/Graphics/SVG/1.1/DTD/svg11.dtd">
<!-- Generated by graphviz version 2.40.1 (20161225.0304)
 -->
<!-- Title: main Pages: 1 -->
<svg width="810pt" height="175pt"
 viewBox="0.00 0.00 810.00 175.00" xmlns="http://www.w3.org/2000/svg" xmlns:xlink="http://www.w3.org/1999/xlink">
<g id="graph0" class="graph" transform="scale(1 1) rotate(0) translate(4 171)">
<title>main</title>
<polygon fill="#ffffff" stroke="transparent" points="-4,4 -4,-171 806,-171 806,4 -4,4"/>
<!-- github.com/pankona/di&#45;sandbox -->
<g id="node1" class="node">
<title>github.com/pankona/di&#45;sandbox</title>
<polygon fill="none" stroke="#000000" points="0,-44.5 0,-113.5 191,-113.5 191,-44.5 0,-44.5"/>
<text text-anchor="middle" x="95.5" y="-98.3" font-family="Times,serif" font-size="14.00" fill="#000000">main</text>
<polyline fill="none" stroke="#000000" points="0,-90.5 191,-90.5 "/>
<text text-anchor="middle" x="95.5" y="-75.3" font-family="Times,serif" font-size="14.00" fill="#000000">github.com/pankona/di&#45;sandbox</text>
<polyline fill="none" stroke="#000000" points="0,-67.5 191,-67.5 "/>
<text text-anchor="middle" x="95.5" y="-52.3" font-family="Times,serif" font-size="14.00" fill="#000000">main.go</text>
</g>
<!-- github.com/pankona/di&#45;sandbox/glue -->
<g id="node2" class="node">
<title>github.com/pankona/di&#45;sandbox/glue</title>
<polygon fill="none" stroke="#000000" points="263,-44.5 263,-113.5 481,-113.5 481,-44.5 263,-44.5"/>
<text text-anchor="middle" x="372" y="-98.3" font-family="Times,serif" font-size="14.00" fill="#000000">glue</text>
<polyline fill="none" stroke="#000000" points="263,-90.5 481,-90.5 "/>
<text text-anchor="middle" x="372" y="-75.3" font-family="Times,serif" font-size="14.00" fill="#000000">github.com/pankona/di&#45;sandbox/glue</text>
<polyline fill="none" stroke="#000000" points="263,-67.5 481,-67.5 "/>
<text text-anchor="middle" x="372" y="-52.3" font-family="Times,serif" font-size="14.00" fill="#000000">glue.go</text>
</g>
<!-- github.com/pankona/di&#45;sandbox&#45;&gt;github.com/pankona/di&#45;sandbox/glue -->
<g id="edge1" class="edge">
<title>github.com/pankona/di&#45;sandbox&#45;&gt;github.com/pankona/di&#45;sandbox/glue</title>
<path fill="none" stroke="#000000" d="M191.0428,-79C210.8962,-79 232.0527,-79 252.6396,-79"/>
<polygon fill="#000000" stroke="#000000" points="262.692,-79 252.692,-83.5001 257.692,-79 252.692,-79.0001 252.692,-79.0001 252.692,-79.0001 257.692,-79 252.6919,-74.5001 262.692,-79 262.692,-79"/>
</g>
<!-- github.com/pankona/di&#45;sandbox/repository -->
<g id="node3" class="node">
<title>github.com/pankona/di&#45;sandbox/repository</title>
<polygon fill="none" stroke="#000000" points="553,-97.5 553,-166.5 802,-166.5 802,-97.5 553,-97.5"/>
<text text-anchor="middle" x="677.5" y="-151.3" font-family="Times,serif" font-size="14.00" fill="#000000">repository</text>
<polyline fill="none" stroke="#000000" points="553,-143.5 802,-143.5 "/>
<text text-anchor="middle" x="677.5" y="-128.3" font-family="Times,serif" font-size="14.00" fill="#000000">github.com/pankona/di&#45;sandbox/repository</text>
<polyline fill="none" stroke="#000000" points="553,-120.5 802,-120.5 "/>
<text text-anchor="middle" x="677.5" y="-105.3" font-family="Times,serif" font-size="14.00" fill="#000000">repo.go</text>
</g>
<!-- github.com/pankona/di&#45;sandbox&#45;&gt;github.com/pankona/di&#45;sandbox/repository -->
<g id="edge4" class="edge">
<title>github.com/pankona/di&#45;sandbox&#45;&gt;github.com/pankona/di&#45;sandbox/repository</title>
<path fill="none" stroke="#000000" d="M191.2575,-108.286C214.5219,-114.2494 239.4776,-119.7021 263,-123 355.625,-135.9864 461.0133,-138.1081 542.3435,-137.0489"/>
<polygon fill="#000000" stroke="#000000" points="552.644,-136.8961 542.7119,-141.544 547.6446,-136.9703 542.6451,-137.0445 542.6451,-137.0445 542.6451,-137.0445 547.6446,-136.9703 542.5784,-132.545 552.644,-136.8961 552.644,-136.8961"/>
</g>
<!-- github.com/pankona/di&#45;sandbox/service -->
<g id="node4" class="node">
<title>github.com/pankona/di&#45;sandbox/service</title>
<polygon fill="none" stroke="#000000" points="561,-.5 561,-69.5 794,-69.5 794,-.5 561,-.5"/>
<text text-anchor="middle" x="677.5" y="-54.3" font-family="Times,serif" font-size="14.00" fill="#000000">service</text>
<polyline fill="none" stroke="#000000" points="561,-46.5 794,-46.5 "/>
<text text-anchor="middle" x="677.5" y="-31.3" font-family="Times,serif" font-size="14.00" fill="#000000">github.com/pankona/di&#45;sandbox/service</text>
<polyline fill="none" stroke="#000000" points="561,-23.5 794,-23.5 "/>
<text text-anchor="middle" x="677.5" y="-8.3" font-family="Times,serif" font-size="14.00" fill="#000000">user.go</text>
</g>
<!-- github.com/pankona/di&#45;sandbox&#45;&gt;github.com/pankona/di&#45;sandbox/service -->
<g id="edge5" class="edge">
<title>github.com/pankona/di&#45;sandbox&#45;&gt;github.com/pankona/di&#45;sandbox/service</title>
<path fill="none" stroke="#000000" d="M191.2081,-49.3475C214.4743,-43.3972 239.4432,-38.0424 263,-35 358.9161,-22.6122 468.3616,-23.2311 550.6966,-26.6143"/>
<polygon fill="#000000" stroke="#000000" points="560.8545,-27.0513 550.6703,-31.1172 555.8591,-26.8363 550.8637,-26.6214 550.8637,-26.6214 550.8637,-26.6214 555.8591,-26.8363 551.0572,-22.1255 560.8545,-27.0513 560.8545,-27.0513"/>
</g>
<!-- github.com/pankona/di&#45;sandbox/glue&#45;&gt;github.com/pankona/di&#45;sandbox/repository -->
<g id="edge2" class="edge">
<title>github.com/pankona/di&#45;sandbox/glue&#45;&gt;github.com/pankona/di&#45;sandbox/repository</title>
<path fill="none" stroke="#000000" d="M481.4296,-97.9845C501.3663,-101.4433 522.3764,-105.0882 542.9403,-108.6558"/>
<polygon fill="#000000" stroke="#000000" points="552.9928,-110.3997 542.3707,-113.1241 548.0664,-109.545 543.1399,-108.6903 543.1399,-108.6903 543.1399,-108.6903 548.0664,-109.545 543.9092,-104.2565 552.9928,-110.3997 552.9928,-110.3997"/>
</g>
<!-- github.com/pankona/di&#45;sandbox/glue&#45;&gt;github.com/pankona/di&#45;sandbox/service -->
<g id="edge3" class="edge">
<title>github.com/pankona/di&#45;sandbox/glue&#45;&gt;github.com/pankona/di&#45;sandbox/service</title>
<path fill="none" stroke="#000000" d="M481.4296,-63.2393C503.8753,-60.0065 527.6815,-56.5778 550.6798,-53.2654"/>
<polygon fill="#000000" stroke="#000000" points="560.8297,-51.8036 551.5733,-57.6833 555.8807,-52.5164 550.9318,-53.2292 550.9318,-53.2292 550.9318,-53.2292 555.8807,-52.5164 550.2903,-48.7752 560.8297,-51.8036 560.8297,-51.8036"/>
</g>
</g>
</svg>
